<svg id="Capa_1" data-name="Capa 1" xmlns="http://www.w3.org/2000/svg" viewBox="0 0 1027.73 1021.18">
    <defs>
        <style>
            .cls-1,.cls-3{fill:#fff;}.cls-1{stroke:#f46927;stroke-miterlimit:10;stroke-width:32px;}.cls-2{fill:#e55b25;}.cls-4,.cls-5{fill:#f46927;}.cls-5{opacity:0.9;isolation:isolate;}
        </style>
    </defs>
    <title>Hindutva</title>
    <path class="cls-1"
          d="M587.49,205.41h221c129.8-1.76,193-145.68,193-145.68-93,45.69-193,43.94-193,43.94-52.62,0-221-1.76-221-1.76-70.16,0-126.3,22.81-126.3,103.5V498.34H589.24Z"
          transform="translate(-7.41 -26.06)"/>
    <path class="cls-1"
          d="M196,476v-221C194.26,125.13,50.34,62,50.34,62c45.69,93,43.93,193,43.93,193,0,52.62-1.75,221-1.75,221,0,70.17,22.8,126.3,103.49,126.3H489v-128Z"
          transform="translate(-7.41 -26.06)"/>
    <path class="cls-1"
          d="M855.79,599.58v221c1.75,129.81,145.67,193,145.67,193-45.69-93-43.93-193-43.93-193,0-52.62,1.75-221,1.75-221,0-70.16-22.8-126.29-103.49-126.29H562.85V601.34Z"
          transform="translate(-7.41 -26.06)"/>
    <path class="cls-1"
          d="M453.63,867.88h-221c-129.8,1.76-193,145.68-193,145.68,93-45.69,193-43.94,193-43.94,52.62,0,221,1.75,221,1.75,70.16,0,126.29-22.8,126.29-103.49V574.94h-128Z"
          transform="translate(-7.41 -26.06)"/>
    <circle class="cls-2" cx="504.32" cy="485.76" r="176.66"/>
    <path class="cls-3"
          d="M446,640c-28.88-10.31-49.84-36-58.14-71.2-3.77-16-4.83-42.38-1.71-42.38,1,0,3.81,7.24,6.16,16.1,5.14,19.38,13.91,37.6,22.38,46.51,14.07,14.79,48.92,20.58,69,11.47,15.64-7.1,22-24,15.18-40.4-5.26-12.69-17.18-16.94-39.39-14,0,0-13.61-14.65-18-40.67l14,1.26c16.81,1.53,29.5-2.19,36.08-10.56,6.19-7.87,6.05-10.91-.83-18.92-9.94-11.55-27.78-8.62-63.9,10.49L408.59,457.1l7.64-5.83c19.15-14.6,52.4-21.91,71.32-15.66,17.24,5.69,29.89,28.26,26.51,47.29-2.28,12.87-12.6,30.9-20.57,35.94l-6.88,4.36,9.5,4.28c16.13,7.28,26,1.71,37.76-21.32C550.16,474.28,560.72,466,585.29,466c11.43,0,15.51,1.19,23.85,7,20.82,14.59,32.16,44.81,29.67,79.07-3.16,43.4-23.71,69.72-54.44,69.72-16.87,0-27.74-5.92-36.4-19.8-7.6-12.2-11-36.36-6.66-47,2.1-5.1,2.47-5.27,2.61-1.19.25,7.5,8.78,19.69,16.62,23.74,19.21,9.93,46.8-2.55,57.71-26.13,8.29-17.89,3.84-52.42-7.53-58.5-2.38-1.28-8.26-2.32-13.07-2.32-10.22,0-18.24,7.35-29.49,27-3.89,6.8-10.44,15.58-14.55,19.51-6.68,6.4-9.07,7.16-22.42,7.16h-15L521.07,555c6.91,15.37,6.59,40.33-.73,55.52-6.47,13.43-21.41,27-33.37,30.35C475.34,644.12,456.39,643.7,446,640Zm56.29-207.65C495.67,421.05,491.6,400,496,400c5.21,11.3,15.89,21.38,27.32,28.41,20.53,9.94,41.34,5.93,64.08-12.35,5-4,9.44-6.87,9.86-6.32,5.55,8.62,15.16,15.66,18.33,25.67,0,4.23-18.19,16.39-32.54,21.76C547.51,467.4,523.3,463.34,502.28,432.33Zm17.93-26.08,23.16-25.68,25.74,23.82c-8.81,7.26-15.16,18.51-25.22,24.21C536,422.75,524.08,415.84,520.21,406.25Z"
          transform="translate(-7.41 -26.06)"/>
    <path id="path2229" class="cls-4" d="M379,323a53.41,53.41,0,1,1-53.41-53.4A53.41,53.41,0,0,1,379,323Z"
          transform="translate(-7.41 -26.06)"/>
    <g id="use1378">
        <path id="path2229-2" data-name="path2229" class="cls-5"
              d="M379,738.85a53.41,53.41,0,1,1-53.41-53.41A53.4,53.4,0,0,1,379,738.85Z"
              transform="translate(-7.41 -26.06)"/>
    </g>
    <g id="use1380">
        <path id="path2229-3" data-name="path2229" class="cls-5"
              d="M780.56,323a53.41,53.41,0,1,1-53.4-53.41A53.4,53.4,0,0,1,780.56,323Z"
              transform="translate(-7.41 -26.06)"/>
    </g>
    <g id="use1382">
        <path id="path2229-4" data-name="path2229" class="cls-5"
              d="M780.56,738.85a53.41,53.41,0,1,1-53.4-53.41A53.4,53.4,0,0,1,780.56,738.85Z"
              transform="translate(-7.41 -26.06)"/>
    </g>
</svg>

