<?xml version="1.0" encoding="UTF-8" standalone="no"?>
<svg xmlns="http://www.w3.org/2000/svg" width="530" height="512" version="1.0">
  <path fill="#002351" d="m385.20823.0093-61.0006 8.20779-47.37408 23.66711-77.41617 52.83266-62.83341 50.08344-25.49992 26.41633-43.708466 54.62562-41.875656 65.58262-16.4155765 38.24988-7.2913845 32.79131-1.79296344 41.87566 7.25154084 22.79055L30.958505 442.6322l33.667868 26.4163 54.665467 17.2922 96.54111 19.1249L318.39046 512l59.24748-.9961 50.99985-4.2633 51.27875-5.8172 20.04135-4.582 15.49917-16.3757 10.91716-33.70773 3.62577-51.91625v-102.9161l-6.37498-61.91701-20.00151-72.83415-20.04134-56.49827L461.708 54.67476l-15.45933-20.04135-30.99834-25.49992L385.20823.0093z"/>
  <g fill-rule="evenodd">
    <path fill="#0088e0" d="m463.1423732 369.67850964-10.5984059 13.30777283 11.67418395 11.67418396-6.8929482 16.4554197 21.75462266 19.124943-2.11171246 14.9015181 14.86167446 15.37964166-13.78589642 11.15621675-7.45075904-3.1874905-24.9819568 13.82574004 1.59374526-10.0804387 12.23199479-10.12028234-23.38821154-7.41091542-12.749962-11.71402758-9.5624715 4.78123575 14.90151808 23.90617875-66.25995877-17.69057228-14.0249582 3.9445195 1.35468347 1.07577804-13.66636552 5.45857748 64.66621352 39.16628952h-18.20853948l-22.79055708-10.91715496h-23.66711696l-17.65072865 19.28431752 59.24747967-.99609078 50.999848-4.26326854 23.34836792-15.37964167 22.87024433 1.59374525 33.46865025-29.76319254-23.38821154-18.6069758 1.59374525-7.96872624-3.7054577-7.96872625 9.00466066-11.67418396 26.05773483 20.71868825 2.11171246-28.6874145-30.28115975-13.2679292-5.29920296-23.38821155-21.27649908-2.6695233z"/>
    <path fill="#016e8e" d="m423.29874196 442.99079114-9.5624715 4.78123575 14.18433272 22.79055707 18.04916496 9.52262787 1.23515257-7.84919536 12.23199479-10.12028233-23.38821154-7.41091542-12.749962-11.71402758z"/>
    <path fill="#016e8e" d="m463.1423732 369.67850964-10.5984059 13.30777283 11.67418395 11.67418396-6.8929482 16.4554197 21.75462266 19.124943-2.11171246 14.9015181 14.86167446 15.37964166-13.78589642 11.15621675-7.45075904-3.1874905-21.95384082 12.15230753 42.99127812-2.62967966 16.6944815-14.82183083-23.38821155-18.6069758 1.59374525-7.96872624-3.7054577-7.96872625 9.00466066-11.67418396 1.7929634 1.43437073-2.62967966-22.11321535-1.2749962-.55781083-5.29920296-23.38821155-21.27649908-2.6695233z"/>
    <path fill="#005b80" d="m462.46503147 370.5152259-28.52803997 12.47105657 10.63824954 2.62967967 13.78589642 11.15621675-19.64291021-.5179672-12.749962-5.8570138-10.75778044 5.13982843-4.50233033 28.88663265 2.74921056 20.91790641-23.7069606.91640352-27.37257467 7.72966446 66.25995877 17.69057228-14.90151808-23.90617875 9.5624715-4.78123575 12.749962 11.71402758 23.38821154 7.41091542-12.2319948 10.12028234-1.59374524 10.0804387 24.98195679-13.82574004 7.45075904 3.1874905 13.78589642-11.15621675-14.86167446-15.37964167 2.11171246-14.90151808-21.75462267-19.124943 6.89294821-16.4554197-11.67418396-11.67418396 9.92106418-12.47105659zm22.07337172 2.4304615 5.17967206 22.79055707 30.28115975 13.26792921-2.11171246 28.6874145-26.05773483-20.71868825-9.00466067 11.67418396 3.70545771 7.96872625-1.59374525 7.96872625 23.38821154 18.6069758-33.46865025 29.76319253-22.87024433-1.59374525-23.34836792 15.37964167 51.27875342-5.81717017 20.04134652-4.58201759 15.49917256-16.37573244L526.374216 446.2579689l3.62577044-51.91625152V380.5956646l-15.45932892-3.54608318 5.45857748 14.58276904-20.83821914-18.0890086-14.62261267-.59765446z"/>
    <path fill="#007adf" d="m422.78077475 379.75894834-5.8570138 3.22733413 9.0445043 7.41091542 12.749962 5.8570138 19.6429102.5179672-13.7858964-11.15621675-10.63824955-2.62967967-11.15621675-3.22733413z"/>
  </g>
  <path fill="#001c34" d="m79.06305342 419.09483786 6.90622091 5.31247566 25.499924-1.59374525 3.71874317 3.1874905 15.40619983-.53123991-37.18738066-21.24994092 9.03121883-6.374981 26.56241658 10.62496408 15.40621259.53125267 5.84372833-4.78123575-41.4373765-13.28121467-14.87495992-.53123991-14.87494716 28.6874145z"/>
  <path fill="#5acdfc" d="m120.19685332 458.1036526 7.28569804-10.0178364 24.58920696.91071704 12.749962 1.82142132 7.28569804-8.19640232 27.32134532-2.73213836-19.124943 19.124943-36.42846468 3.64284264-23.67850268-4.55354692z"/>
  <path fill="#0088c2" d="m386.124634 380.67535186-39.16628952 1.83280704-17.29213596 3.66561407 33.70771204 43.70846349-101.12313612-40.08269304-68.29198396.91640352 79.24898256 12.749962 10.91715496 15.45932892h15.49917256l48.72876101 39.006915 41.39753287-11.67418396 23.7069606-.91640352-2.74921056-20.9179064 4.50233033-28.88663266.03984363-.27890542-29.12569444-14.58276904z"/>
  <path fill="#008ff2" d="m386.124634 380.67535186-20.36009557.95624715-13.62652189 11.95308938 21.75462267 29.24522533-18.16869585-2.82889781 7.6499772 9.88122055 19.56322294 7.80935172 20.20072104-5.29920296.51796721-26.05773483-14.86167446-15.37964167 9.08434793-4.38279943-11.75387122-5.89685743z"/>
  <path fill="#0071bd" d="m284.124938 418.92523786-8.20778804 61.9568466 15.49917256.91640352v17.29213596l-111.12388756-9.12419156-67.37558044-19.124943-23.66711696-5.45857748-6.69373005 9.32340971 36.735828 11.63434033 96.54111853 19.124943 89.52863942 5.69763927 13.3874601-18.44760127-30.0819416-73.79040508H284.124938z"/>
  <path fill="#60cffa" d="m321.45842048 61.04974197-14.58276904 13.6265219-10.91715496 57.374829 9.12419156 6.374981-3.66561408 44.624867.91640352 113.8730981-17.73634464 20.68377886 15.9035376 6.60910855 12.1124639-8.32731893-2.98827234-10.79762407 69.20838748-108.374677 12.749962-61.91700296 15.49917256 28.24913455 11.83355848-78.33257903-44.624867 9.08434792-52.83265504-32.75146489z"/>
  <path fill="#002b60" d="m334.06229342 293.72020302 81.81224766-4.78123575 24.43743142 26.03117667-2.65623783-41.96862917-27.62492192 9.5624715-30.28115975-13.28120191 24.96867133-21.24994092-28.6874145 4.78123575-41.96861641 40.90612383z"/>
  <path fill="#1198d0" d="m496.2922744 135.99561236-5.4984211 11.63434032-15.9374525 14.86167446-13.30777284 37.7319188 7.96872625 4.78123574-19.124943 20.20072104 5.85701379 19.64291021 4.26326854 28.6874145 16.97338692 19.124943-2.11171246 11.15621675 11.67418396 9.5624715-15.85776524 8.36716256.55781084.67734173-10.9569986 22.75071345-26.57570204 2.47030514 19.36400479 7.68982083 10.63824954-12.749962h5.29920296l-1.03593442 10.12028233 8.72575525 11.75387122 17.0929178 7.0124791 20.91790641-3.90467586 6.374981.5179672v10.59840592l8.4070062 1.95233793v-89.20989037l-6.374981-61.91700296-20.0015029-72.83415793-7.33122814-20.67884461z"/>
  <path fill="#139ed7" d="m452.62365456 157.55101686 1.7929634 7.29138452-.91640352 24.58352048-19.124943 40.08269304 9.12419156 18.20853948-.91640352 9.12419156 20.04134652 44.624867.91640352 10.91715496 7.6499772 9.36325334 15.85776524-8.36716256-11.67418396-9.5624715 2.11171246-11.15621675-16.97338692-19.124943-4.26326854-28.6874145-5.8570138-19.6429102 19.124943-20.20072105-7.96872624-4.78123575 13.30777283-37.7319188 15.9374525-14.86167445 5.49842112-11.63434032-43.66861985 21.5554045z"/>
  <path fill="#006bd9" d="m515.21799925 367.56679718-20.9179064 3.90467586 4.74139211 1.95233794.1195309.11953089 20.83821914 18.08900859-5.45857748-14.58276904 7.05232273 1.63358888v-10.59840591l-6.374981-.5179672z"/>
  <path fill="#10a3e6" d="m469.5173542 205.00478168-19.124943 20.20072104 5.8570138 19.64291021 4.26326854 28.6874145 16.97338692 19.124943-2.11171246 11.15621675 11.67418396 9.5624715-15.4194853 8.12810078 11.71402759 11.51480943 6.8929482 4.26326854 5.8570138-5.8570138 12.2319948 3.1874905-1.59374526 5.3390466 15.9374525 9.5624715-2.66952329-67.49511134-5.29920296-44.06705616-7.45075904-19.124943-37.7319188-13.82574005z"/>
  <path fill="#3de6f9" d="m496.09305625 331.42862364-5.8570138 5.8570138-6.8929482-4.26326855-.03984363-.03984363-9.52262787 8.00856988 5.29920296 6.93279183 2.15155608 9.00466067 17.53119775.55781083 3.1874905-13.30777283 5.0999848-5.29920296 1.2749962-4.26326854-12.23199479-3.1874905z"/>
  <path fill="#00a7ff" d="m360.62471 342.42546586 54.74514934 32.19365405 1.71327614-8.48669345 9.12419156-.91640352 10.91715496 6.374981 10.91715496-10.91715497 15.49917256-1.83280703 13.66636552 5.617952-8.72575525-11.75387122 1.03593442-10.12028233h-5.29920296l-10.63824954 12.749962-19.3640048-7.68982083-11.71402758 1.07577804-19.08509937 3.74530134L360.62471 342.42546586z"/>
  <path fill="#0059bf" d="m312.61313434 315.88960745-12.1124639 8.32731893-.11953089.47812358-12.1124639 51.19906615.39843631.23906179-1.7929634 13.66636552 6.374981-.55781084 1.55390161 13.46714736 68.57088939 27.17335652-33.70771204-43.70846349 16.6944815-3.54608318.59765446-.11953089 41.3178456-2.23124335 26.97413836-5.06014117.1195309-.59765447L360.62471 342.42546586l42.79205996 10.04059508 19.08509937-3.74530134-80.08569881-28.12960366-21.83430993.71718536-6.41482463.19921816-1.55390162-5.61795201z"/>
  <path fill="#0060ce" d="m284.59713284 317.60781783-9.5963864 11.19112614-66.45917692 28.20929093-20.95775004-5.45857748-4.54217396 7.29138452 42.79205996 18.20853948h16.41557608l-18.24838312-11.83355848 9.12419156-7.29138452 23.66711696-.91640352 31.47646869 18.88588121 12.2319948-51.67718973-15.9035376-6.60910855z"/>
  <path fill="#0074d6" d="m318.4303045 387.13002012-25.18117494 2.11171246 1.55390161 13.46714736 35.50067545 14.06480183-11.87340211-29.64366165z"/>
  <path fill="#0bbcff" d="m300.38113955 324.69504996-12.1124639 51.19906615.39843631.23906179-1.7929634 13.66636552 39.5248822-3.34686503 1.07577804-.19921815-16.93354328-53.82874582-10.16012597-7.72966446z"/>
  <path fill="#14bdba" d="m320.5818606 321.3083413 4.54217396 32.99052667L346.36069 382.6276898l.59765447-.11953089 41.3178456-2.23124335 26.97413836-5.06014117.1195309-.59765447L360.62471 342.42546586l-40.0428494-21.11712456z"/>
  <path fill="#0050a0" d="m391.58321148 134.80030342-12.749962 61.91700296-14.18433272 22.23274624 18.72650668-.35859268 42.8319036 30.95850148 16.65463786 4.50233033.6374981-6.33513737-9.12419156-18.20853948 19.124943-40.08269304.91640352-24.58352048-1.11562167-4.54217396-18.4874449 4.82107938-1.31483983 39.80378762-37.37332612-11.83355848 4.74139212-41.35768924-9.28356608-16.93354328zm53.73767284-3.6421159-13.66067903-24.58920696 8.19640232-9.10711936V87.44403756H430.749501v-7.28568529l11.83924496-.91071703 13.66067904-12.749962 10.01782364 14.57138332v27.32134532h-11.83924496l-2.73213836 6.374981 8.19640232 7.28569804 9.10711936-4.55355968 3.64284264 13.66067903-6.374981 3.64284265-6.374981-11.83925772-14.57138332 8.19640232z"/>
  <path fill="#005d9d" d="m430.749501 130.25812946-10.91715496 23.66711696-4.5820176 17.29213596h-9.08434792l-.1195309-10.0804387-5.17967206-9.44294061-4.74139212 41.39753287 37.37332612 11.83355848 1.7929634-53.74905856-4.54217396-20.9179064zm-36.65614075 78.45210993-13.2679292 2.15155608-3.58592682 7.84919536 6.13591921-.1195309 42.8319036 30.95850149.1195309.03984363 4.94061027-6.33513737-1.03593442-10.0804387-36.13817354-24.4639896z"/>
  <path fill="#0078ed" d="m385.20823048.0092989-61.00059944 8.20778804-13.82574005 6.8929482L284.124938 60.13333846l8.20778804 9.08434792-14.58276904 23.7069606 10.91715496 10.00075144 18.20853948-28.24913456 14.58276904-13.62652189 52.83265504 32.7514649 29.88272344-6.09607559-.757029-8.44684982 5.45857748-14.58276904 4.5820176-22.75071345-28.24913456-3.66561407-9.08434792 9.12419156-20.95775004-18.20853948L401.9425556 5.1092837 385.20823048.0092989z"/>
  <path fill="#019bf7" d="m369.27077798 11.40457744-16.37573244 8.20778803-1.3945271 11.83355849-26.85460746 20.9179064 19.60306658 1.3945271 17.29213596 13.18824194 9.08434792-14.58276904 8.20778804-1.7929634 29.56397439 15.33979803.47812357-1.23515257 4.5820176-22.75071345-28.24913456-3.66561407-9.08434792 9.12419156-20.95775004-18.20853948 34.02646109-17.53119775-19.92181563-.2390618z"/>
  <path fill="#3ceafe" d="m304.92331351 24.43344486-14.10464546 24.2249278 24.742895 1.9124943v-10.9569986l-10.63824954-15.1804235z"/>
  <path fill="#0070b6" d="M244.04224496 70.1340899h15.49917256l3.62577044 15.49917256-17.29213596.91640351-21.87415356 17.29213597h23.7069606l20.04134652 11.83355848L277.749957 92.92464698l2.35077424-3.78514497-5.97654468-5.3390466V72.88330047l-9.87572532-15.40061535-20.20621628 12.65140479z"/>
  <path fill="#0070b6" d="m306.87565144 74.67626386-18.20853948 28.24913456-12.749962 28.24913455-24.58352048.8765599-19.124943-11.83355849-29.12569444-4.54217396-4.5820176-7.29138452H188.500223l-5.45857748 9.12419156-33.70771204 20.9179064-9.08434792 15.49917256 25.499924 20.95775004 54.62561844 13.66636551 4.54217396-15.49917255 20.95775004-1.83280704 55.5818656 16.33588881-.03984364-4.50233033 3.66561408-44.624867-9.12419156-6.374981 10.91715496-57.374829z"/>
  <path fill="#003360" d="m235.25008792 217.22043102 30.28115975-22.84367341 28.15616183 25.499924-1.06249258 28.15616183-22.84368617-33.99990292-14.34370725-2.65623783-5.31248842 10.09372417-14.87494716-4.24999584z"/>
  <path fill="#0c88e0" d="m118.375432 153.68618463-7.29138452 7.5304463L67.375584 215.84224939l40.08269304 20.04134652v4.54217396l12.51090021 13.46714736 30.28115975-11.15621675 4.26326854 4.22342492-3.74530133 9.5624715h-15.37964167l-5.85701379 5.8570138 10.63824954 7.45075904-1.07577804 10.5984059 6.374981 8.5265371-.5179672 14.34370725-6.05623196 4.82107938 10.4390314 10.63824954 30.95850147 2.74921056 4.5820176-7.29138452-25.499924-10.04059508 18.20853948-15.45932892-10.9569986-15.49917256 8.20778804-28.20929092 25.499924-30.0819416-81.95834948-61.23966123z"/>
  <path fill="#0072bf" d="m134.4324154 165.67911764-11.79371486.55781083-6.93279183 9.00466067 5.85701379 10.63824954h18.04916496l28.16944729 22.3124335-6.374981 5.8570138H121.5629225l-13.2679292-4.78123576-4.26326855-8.52653708-7.45075904.55781083 1.07577804 13.26792921 11.67418396 10.63824954 30.28115975-1.07577804 21.27649908 5.8570138 28.76710177-23.02961887-55.22327292-41.27800197z"/>
  <path fill="#023c90" d="m155.54953996 279.91080843.55781083 8.48669346 9.24372245 10.7179368 12.2319948-10.39918775-5.06014117-7.17185363-16.97338691-1.63358888zm6.21560647 25.22101858-12.1124639 13.66636552 30.63975243 2.70936693 4.5820176-7.29138452-23.10930613-9.08434793zm-53.50999677 30.12178523zm27.65148009-21.95384082-7.96872625 2.74921055-19.56322294 19.2444739.87655988 20.79837551L137.500375 344.2582729l-17.29213596-8.20778804 5.45857748-8.1679444 18.16869585-7.0124791-7.92888262-7.57028994z"/>
  <path fill="#007ecb" d="m24.06555683 323.7388028-6.61404279 20.99759367 5.7374829 14.54292541-.43827994 17.3319796-3.1874905 11.67418395-8.88512977 24.70305138 43.03112175-19.56322295-30.04209796-1.7929634 71.87791077-47.89204477-6.93279183-2.19139972-35.34130092-11.3554349-25.22101858-.31874905-3.98436313-6.13591921z"/>
  <path fill="#0070bd" d="m28.04991996 329.87472202 6.374981 5.29920295-11.23590402 24.10539691-.43827994 17.29213596 13.2679292-12.71011837 14.34370726-12.23199479 18.60697579-7.45075904 19.6429102-2.62967967-35.34130091-11.3554349-25.22101858-.31874905z"/>
  <path fill="#4f95d7" d="m25.57961482 315.96929471-15.97729613 3.3070214-.5179672.3984363-7.29138453 32.79130853-1.7929634 41.87565644 6.53435552 20.5194701 4.14373765-1.87265067 8.88512977-24.70305138 3.1874905-11.67418396.43827994-17.33197959-5.7374829-14.5429254 6.6140428-20.99759367 3.98436312 6.1359192 25.22101858.31874906-27.69132372-14.22417636z"/>
  <path fill="#0080fd" d="m67.375584 215.84224938-41.87565644 65.58261704-8.16794441 19.04525574 23.62727333-6.29529374H57.8131125l12.31168206-24.66320775 26.45617115-1.2749962H105.62547l14.34370725-14.34370725-12.51090021-13.46714736v-4.54217396L67.375584 215.84224938zm28.6874145 78.4122663 8.48669346 11.15621675-21.23665546 2.6695233-4.26326854 2.62967966 7.45075904 11.71402758-20.9179064-8.72575524-8.72575525-10.0804387-9.52262787 7.84919535-21.75462266 4.50233033 27.69132372 14.22417636 35.34130092 11.3554349 6.93279183 2.19139972 12.71011837-8.48669345-16.97338691-10.1999696 25.46008037-19.68275384-7.92888262-11.11637312h-12.749962z"/>
  <path fill="#34fefe" d="m81.04194952 234.05078886-20.04134652 6.374981-9.52262787.31874905-25.97804757 40.6803475-1.63358889 3.78514498 15.26011077 3.50623955 20.04134652-11.83355848.91640352-13.66636552 6.374981-16.41557608 10.91715496-6.374981h30.0819416v-4.54217396l-26.41632752-1.83280704z"/>
  <path fill="#03ebff" d="m40.95925648 294.17482842-23.62727333 6.29529374-8.12810078 18.8858812 38.13035511-7.88903898 20.95775004-17.29213596H40.95925648z"/>
  <path fill="#0070e8" d="m124.2324458 260.78586543-3.74530134 13.2679292-16.45541971.55781084-7.45075904-6.374981-26.45617115 1.2749962-12.31168206 24.66320775h10.47887502l-11.43512217 9.4429406 8.72575524 10.08043871 20.91790641 8.72575524-7.45075904-11.71402758 4.26326854-2.62967967 21.23665546-2.66952329-8.48669346-11.15621675h12.749962l7.92888262 11.11637312-25.46008037 19.68275384 16.5749506 9.96090781.5179672.15937452.19921816-.07968726 19.36400479-19.04525574 7.96872625-2.74921055 7.92888262 7.57028994 5.49842111-2.11171246-10.43903139-10.63824954-6.45466826-3.78514497h.27890542l-10.63824954-11.15621675v-11.67418396l11.71402758.5179672-9.5624715-21.23665545z"/>
  <path fill="#006fd8" d="m150.250337 242.73670047-30.28115975 11.15621675L105.62547 268.23662447h-9.0445043l7.45075905 6.374981 16.4554197-.55781083 3.74530134-13.2679292 9.5624715 21.23665545-11.71402758-.5179672v11.67418395l10.63824954 11.15621675h-.27890542l6.45466826 3.78514497 6.05623195-4.82107938.51796721-14.34370726-6.374981-8.52653708 1.07577804-10.59840592-10.63824954-7.45075904 5.8570138-5.8570138h15.37964166l3.74530133-9.5624715-4.26326854-4.2234249z"/>
</svg>