<?xml version="1.0" encoding="UTF-8" standalone="no"?>
<svg xmlns="http://www.w3.org/2000/svg" xmlns:xlink="http://www.w3.org/1999/xlink" width="256" height="256"
     version="1.0">
    <defs>
        <linearGradient id="b">
            <stop offset="0" stop-color="#d2ae6b"/>
            <stop offset="1" stop-color="#fd9600"/>
        </linearGradient>
        <linearGradient id="a">
            <stop offset="0" stop-color="#fff"/>
            <stop offset="1" stop-color="#b8b8b8" stop-opacity="0"/>
        </linearGradient>
        <linearGradient xlink:href="#a" id="d" x1="-382.52887" x2="-409.85529" y1="383.88269" y2="453.90665"
                        gradientTransform="matrix(-.59146 0 0 .59146 210.0216 142.2324)"
                        gradientUnits="userSpaceOnUse"/>
        <linearGradient xlink:href="#b" id="c" x1="-619.14587" x2="-384.13803" y1="446.34399" y2="446.34399"
                        gradientUnits="userSpaceOnUse"/>
    </defs>
    <g transform="translate(-373.642 -318.344)">
        <rect width="235.00784" height="234.98955" x="-619.14587" y="328.84921" fill="url(#c)" fill-rule="evenodd"
              rx="35.487503" ry="35.487503" transform="scale(-1 1)"/>
        <path fill="#392212"
              d="M428.29825 328.844c.034149.674465-.285778 1.079899-1.03125 1.625-1.14593.83794-1.32112 1.72395-.90625 4.15625.28905 1.69466.86378 5.26529 1.3125 7.9375.44873 2.67222.9047 9.0345 1 14.15625.09533 5.12173.45021 9.73722.78125 10.25.33106.51279.65575 3.96927.71875 7.6875.06299 3.71822.44714 7.65252.84375 8.71875.45139 1.21353.36756 2.94318-.1875 4.625-.70081 2.12348-.62576 3.23935.34375 5.34375.67467 1.46441 1.62044 5.53845 2.09375 9.0625.9384 6.98694 1.6217 8.28009 5.28125 9.875 4.1278 1.79897 4.87365 1.47281 4.96875-2.15625.05029-1.91771.60789-3.6799 1.34375-4.25 1.49425-1.15768 1.99557-5.54031 1.0625-9.375-.5241-2.15389-.37626-2.90842.625-3.46875 1.1407-.63837 1.09905-1.08333-.4375-4.03125-1.45496-2.7914-1.60654-3.69852-.84375-5.84375 1.11871-3.14625.44922-8.86304-1.53125-12.8125-1.26181-2.5163-1.39452-3.65544-.71875-7.21875.6871-3.62306.58159-4.57126-.71875-6.625-1.38395-2.1858-1.40463-2.70381-.375-6.125.77509-2.57545.89644-4.38269.375-5.78125-.91242-2.44724-.77726-12.94375.1875-14.4375.183724-.284466.251896-.759334.21875-1.3125h-14.40625zm19.4375 0c-.119829.314092-.229608.607046-.34375.78125-.95918 1.4639-1.01243 2.19557-.21875 3.9375.74792 1.64141.75775 2.36726.03125 3.09375-1.30027 1.30028-1.19571 5.1085.21875 7.84375.64425 1.24575.9656 3.02478.71875 3.96875-.24685.94399.02141 3.64682.59375 6s.997 5.01725.9375 5.90625c-.05953.889.43882 3.54586 1.125 5.90625.88998 3.06144 1.01886 4.57435.40625 5.3125-.60684.73114-.59571 1.31054.03125 1.9375.48803.48803 1.19321 2.2628 1.5625 3.96875.36927 1.70595 1.32665 5.11298 2.125 7.5625 1.73066 5.31001 1.93569 17.99692.34375 20.90625-.85745 1.56701-.80855 2.21174.28125 3.875.90859 1.38669 1.14984 2.84775.78125 4.8125-.31156 1.66079-.18174 3.27309.34375 3.90625.91486 1.10235 1.27234 3.17628 2.15625 13.0625.27872 3.11757.79228 6.39051 1.15625 7.28125.364.89074 1.08749 3.15851 1.59375 5.03125.50628 1.87275 1.80469 4.47213 2.90625 5.78125 1.47437 1.75221 2 3.34565 2 6 0 2.93908.35863 3.7525 1.84375 4.46875 2.52223 1.21642 2.77772 1.20523 3.3125-.40625.25864-.7794.95192-2.72246 1.53125-4.28125.75227-2.02405.95008-6.52847.75-15.78125-.15409-7.12589-.27825-13.85534-.28125-14.96875-.00321-1.11343-.3623-2.48704-.8125-3.03125-.4502-.5442-1.09721-4.18426-1.4375-8.09375-.34029-3.90948-1.12594-8.11724-1.71875-9.375-.85932-1.82328-.8554-2.6366-.0625-3.90625.54699-.87587.72905-2.00893.40625-2.53125-.99244-1.60581-1.9889-8.01577-2.15625-13.96875-.0999-3.55336-.69535-6.68959-1.59375-8.4375-.7882-1.53354-1.60554-3.89783-1.84375-5.25-.23821-1.35217-1.14057-4.0571-2-6-1.3062-2.95287-1.42874-4.09169-.71875-6.90625.46713-1.85191.7973-4.86369.75-6.71875-.0473-1.85506.27426-3.60029.71875-3.875.44447-.27471.63718-.99195.40625-1.59375-.23093-.6018.12152-2.3898.78125-3.96875.65972-1.57895 1.45935-4.98614 1.78125-7.5625.222994-1.78475.668021-3.539116 1.125-4.6875h-19.53125zm26.71875 0c-.71684 3.968037-1.052362 11.422215-1.5 27.875-.14621 5.37356.12624 7.59837 1.3125 10.4375.6545 1.56643.98349 3.32903.75 3.9375-.23349.60847.08083 2.0847.6875 3.28125.60668 1.19656 1.27606 4.72616 1.5 7.84375.52351 7.28837 2.56307 13.33863 6.46875 19.21875 2.3542 3.54432 3.59897 4.6875 5.0625 4.6875h1.9375l-.3125-10.125c-.17016-5.56633-.70582-12.28118-1.1875-14.9375-.51837-2.85867-.69217-8.89196-.40625-14.78125.26567-5.47244.46505-12.74517.40625-16.15625-.06857-3.97697.28585-7.02481 1.03125-8.5.63934-1.26528 1.00411-2.83953.78125-3.46875-.22287-.62922.19632-1.59143.96875-2.15625.9926-.725802 1.35022-2.308347 1.53125-7.15625H474.4545zm51.25 0c-.05336 1.131986-.088 2.031309-.15625 3.59375-.14934 3.4192.20579 5.61329 1.84375 10.9375.68508 2.22684 1.91161 7.48775 2.71875 11.71875.80715 4.23101 2.51731 10.62455 3.8125 14.1875 2.44403 6.7233 2.89098 8.84321 3.40625 17 .1688 2.67221.87065 7.59724 1.59375 10.9375.7231 3.34027 1.65929 7.80138 2.0625 9.9375.40323 2.13613 1.53487 5.18841 2.5 6.75.96512 1.5616 1.53565 3.02686 1.28125 3.28125-.25441.25441.25334 1.85391 1.125 3.5625.87164 1.70859 1.59375 3.6892 1.59375 4.375 0 .68579.70302 1.95301 1.59375 2.84375 2.11592 2.11591 3.36894 2.05568 5.59375-.3125 1.79493-1.91061 1.83361-2.09883.9375-11.0625-.50163-5.01762-1.10469-9.41374-1.3125-9.75-1.15949-1.87608-2.12643-10.64741-2.34375-20.96875-.13598-6.45784-.66318-12.77749-1.15625-14.03125-.49308-1.25375-.90625-3.46571-.90625-4.9375 0-1.47177-.69577-4.91187-1.5625-7.625-1.74772-5.47064-1.76379-12.69237-.03125-16.71875.57492-1.3361 1.09225-2.80462 1.15625-3.25.58155-4.04476 1.6483-7.0297 2.75-7.65625 1.14233-.64965 1.18715-1.00248.25-2.53125-.0553-.090204-.10736-.18453-.15625-.28125H525.7045zm46.09375 0c.00106 1.210773-.00956 3.085879-.0625 5.625-.065 3.11758-.04755 7.64422.03125 10.09375.07882 2.44952-.2451 7.55811-.71875 11.34375-.47364 3.78563-.84775 10.30915-.84375 14.5.00489 4.20891-.37848 8.00349-.84375 8.46875-.46326.46325-.84375 2.06181-.84375 3.5625 0 2.36308.24173 2.69285 1.8125 2.46875 1.04351-.14888 1.94811-.91684 2.125-1.84375.16908-.88607.9426-2.08136 1.71875-2.625.77617-.54364 1.89096-2.15982 2.46875-3.625.5778-1.4652 1.69595-3.23819 2.46875-3.90625 2.02276-1.74859 3.31411-9.45315 3.5-20.625.14055-8.44598.47942-10.48893 2.4375-15.59375.91367-2.381979 1.73519-5.395463 2.15625-7.65625-1.166-.11466-2.33412-.1875-3.53125-.1875h-11.875zm-163.125 1.71875c-5.410728 1.742455-10.237867 4.737867-14.15625 8.65625-.006837.009219-.024419.023019-.03125.03125-.56898.68558-.52723 1.81425.15625 3.625.84093 2.22788.81264 2.79328-.25 3.59375-.69128.52073-1.89012 2.94513-2.65625 5.40625-.76613 2.46113-2.3029 6.25811-3.40625 8.4375-1.10334 2.17938-2 4.86242-2 5.9375 0 1.07508-.75403 4.84137-1.65625 8.375-.23263.911124-.371325 1.644885-.53125 2.375v6.40625c.71074 2.873571.725021 10.534546 0 12.25v37c.891963 2.72908.967578 4.7446.53125 9.5-.56194 6.12445-.48464 6.57547 1.34375 8.53125 1.06369 1.13778 1.9375 2.86378 1.9375 3.8125 0 .94872.34466 2.66417.78125 3.8125.75022 1.97321 1.34604 5.06697 3.375 17.4375.4748 2.8949 1.36041 6.1901 1.9375 7.3125.57709 1.12241 1.44801 4.19584 1.9375 6.84375.59081 3.19599 1.703 5.84097 3.3125 7.84375 2.75845 3.43254 2.88701 3.90625 1.1875 3.90625-1.52495 0-1.51579.93472 0 4.5625.66173 1.58371 1.57955 2.74432 2.03125 2.59375.45171-.15057.7627-.43356.6875-.65625-.07525-.22268.29223-1.25071.84375-2.28125.69713-1.30259.7691-2.17423.1875-2.875-.60145-.72471-.37773-1.41391.78125-2.40625 1.44696-1.23893 1.56227-2.15229 1.28125-9.09375-.2568-6.3435-.0365-8.2867 1.1875-10.6875 1.06141-2.08194 1.35431-3.81549 1-6.03125-.35385-2.2129-.1603-3.50802.71875-4.5.70924-.80039 1.2318-2.79972 1.1875-4.65625-.04247-1.78147.50513-4.50371 1.21875-6.0625 1.67524-3.65934 2.24549-7.27257 1.46875-9.3125-.36742-.96493-.1933-2.50968.46875-3.8125.61114-1.20265 1.125-3.99609 1.125-6.21875 0-2.22269.36714-4.25601.8125-4.53125.44538-.27527.8125-1.59839.8125-2.9375 0-1.3391.37103-3.17923.84375-4.0625.61094-1.14162.6124-2.39346-.03125-4.34375-.66792-2.02325-.66935-3.85839 0-7.03125.49918-2.36626.8928-4.8632.875-5.53125-.47028-17.62687-.84302-22.10459-1.9375-23.34375-.66008-.74736-1.46064-3.36297-1.78125-5.8125-.35712-2.7286-1.80347-6.72095-3.71875-10.3125-1.7194-3.22422-2.93024-6.36743-2.6875-7 .24274-.63257-.11194-2.27028-.8125-3.625-1.02241-1.97716-1.09847-2.8748-.34375-4.53125.51715-1.135 1.21653-2.0625 1.5625-2.0625.34597 0 .61735-1.38535.59375-3.09375-.02357-1.70839.20165-4.54658.5-6.3125.29835-1.76592.14732-7.2174-.34375-12.09375-.120158-1.193162-.226354-2.083741-.34375-3.03125zm194.0625 3.84375c-.26213 2.361401-.68445 4.309536-1.09375 4.5625-.63481.39234-.5891 1.41485.1875 3.5625.94169 2.60421.90716 3.12597-.15625 3.9375-.67573.51567-1.72131 2.58959-2.34375 4.59375-.62244 2.00416-1.75688 5.09353-2.53125 6.875-2.58637 5.95002-2.56618 6.30082.875 11.625 1.78742 2.76549 4.12274 6.74409 5.1875 8.84375 1.06476 2.09968 2.68613 4.52656 3.625 5.375.93888.84841 1.71875 2.19999 1.71875 3.03125 0 .83126.93238 2.91729 2.0625 4.625 3.82417 5.77873 4.88592 16.25361 2.0625 20.21875-.97566 1.37019-1.6875 3.66629-1.6875 5.34375 0 1.61024-.91782 5.16611-2.03125 7.90625-2.22648 5.47941-2.47566 7.69797-1.15625 10.59375 1.23021 2.70002-.30813 10.55812-2.5 12.75-1.13431 1.13432-1.50522 2.21298-1.15625 3.3125.76197 2.40076-1.31756 12.07144-3.15625 14.75-1.34001 1.9521-1.50291 3.22213-1.125 8.21875.24544 3.24528.99142 6.96437 1.65625 8.25.66482 1.28564 1.60427 4.47709 2.09375 7.125.59081 3.19599 1.70301 5.84097 3.3125 7.84375 2.75846 3.43254 2.91826 3.90625 1.21875 3.90625-1.52495 0-1.51579.93472 0 4.5625.66172 1.58371 1.5483 2.74432 2 2.59375.45171-.15057.7627-.43356.6875-.65625-.07526-.22268.32347-1.25071.875-2.28125.69712-1.30259.73784-2.17423.15625-2.875-.60146-.72471-.37772-1.41391.78125-2.40625 1.44696-1.23893 1.59351-2.15229 1.3125-9.09375-.25681-6.3435-.06775-8.2867 1.15625-10.6875 1.06143-2.08194 1.35431-3.81549 1-6.03125-.37239-2.32876-.13866-3.50164.90625-4.65625.99129-1.09536 1.24828-2.23795.875-3.9375-.35096-1.5979.00536-3.58455 1.0625-5.9375.1962-.43669.36208-.86156.53125-1.28125v-84.03125c-.39424-.880027-.82438-1.768286-1.28125-2.625-1.71938-3.22422-2.93022-6.36743-2.6875-7 .24275-.63257-.14319-2.27028-.84375-3.625-1.02242-1.97716-1.06723-2.8748-.3125-4.53125.51714-1.135 1.21653-2.0625 1.5625-2.0625.34596 0 .5861-1.38535.5625-3.09375-.00723-.523856.02806-1.170343.0625-1.84375-2.82592-6.506893-7.54825-11.977609-13.46875-15.75zm-99.25 28c-1.73179.281992-2.45179 2.6548-1.8125 6.0625.27865 1.48534.16822 2.92904-.25 3.1875-.90822.56132-.48029 29.27453.59375 39.3125.40506 3.78564 1.16566 12.13566 1.6875 18.5625.54613 6.72613 1.45735 12.64639 2.125 13.9375.63795 1.23366 1.15625 3.08857 1.15625 4.125 0 1.03644.56364 2.70756 1.25 3.6875.68638.97993 1.7163 3.31603 2.3125 5.21875.59619 1.9027 1.33716 4.03325 1.625 4.71875.30803.73358-.48662 2.73173-1.90625 4.875-2.31931 3.50152-2.37596 3.96363-2.125 11.4375.14355 4.27491.55014 8.2363.90625 8.8125.35612.57622.73737 3.12297.84375 5.65625.10637 2.53327.68365 5.39954 1.28125 6.375 1.51967 2.48057 6.02237 5.12074 7.78125 4.5625 2.13239-.6768 3.38123-5.02212 2.96875-10.40625-.25926-3.38419.01753-5.40573 1-7.28125.74874-1.4293 1.2772-3.66036 1.1875-4.9375-.08969-1.27715.26762-2.81862.78125-3.4375.64265-.77435.76936-3.34687.40625-8.21875-1.40306-18.82515-1.40551-18.13249.09375-17.84375 3.38638.65216 12.69154 20.5917 10.71875 22.96875-.81673.98415-.83359 1.84918 0 4.375.57356 1.73807.80208 4.16961.5 5.4375-.30067 1.26193-.88508 3.9048-1.3125 5.875-.4274 1.9702-1.36688 4.20011-2.0625 4.96875-.92721 1.02456-1.10109 2.20165-.6875 4.40625.56235 2.99759-.68231 10.78687-2.1875 13.625-.4332.81685-.56648 2.54509-.28125 3.84375.32496 1.47959.17717 2.375-.375 2.375-.59094 0-.69229 1.44082-.34375 4.40625.48382 4.11657.36361 4.49186-1.4375 5.3125-2.00481.91346-1.90495.55106-2.375 11.3125-.14934 3.4192.20579 5.6133 1.84375 10.9375.68508 2.22684 1.91161 7.519 2.71875 11.75.08293.43471.21175.96286.3125 1.4375h17.125c-.94303-4.39359-.65488-10.7351.75-14 .57491-1.3361 1.09225-2.77338 1.15625-3.21875.58156-4.04477 1.67955-7.0297 2.78125-7.65625 1.14233-.64966 1.1559-1.00249.21875-2.53125-.82664-1.34851-.92675-3.34531-.4375-8.34375.97623-9.97349.56596-22.78693-.9375-28.78125-.83576-3.3324-1.19382-6.79004-.90625-9.21875.34084-2.87868.04563-5.02318-1.1875-8.125-.91831-2.30993-2.15962-7.27686-2.75-11.0625-1.68852-10.82698-3.20019-15.07944-6.84375-19.21875-1.81048-2.0568-4.43486-5.76218-5.84375-8.25-3.40451-6.01168-6.86543-10.53726-10.5625-13.78125-1.76638-1.54991-3.03125-3.3789-3.03125-4.40625 0-.97138-.73426-3.84068-1.625-6.375-.89073-2.5343-1.64625-5.27197-1.65625-6.0625-.00979-.79052-.73154-3.03061-1.625-5-1.03202-2.2748-1.33506-3.8837-.84375-4.375.49126-.49132.46563-1.52563-.0625-2.875-.45721-1.16822-1.01649-5.76506-1.21875-10.21875-.65517-14.426-.75763-15.3245-2.625-20.875-1.83286-5.44793-3.30652-7.0625-6.4375-7.0625-.12423 0-.25955-.018799-.375 0zm64.1875 25.90625c-.41908 0-.78125.36713-.78125.8125s.58692.8125 1.28125.8125c.69437 0 1.02525-.36713.75-.8125s-.83092-.8125-1.25-.8125zm-166.75 5.65625c1.286218-.043467 2.781166.618395 3.625 1.90625.6885 1.05066 1.04787 2.49267.78125 3.1875-.26664.69483.1025 2.1812.84375 3.3125 1.60757 2.45345 1.04408 6.19625-1.46875 9.75-1.05152 1.4871-1.69285 3.80115-1.78125 6.3125-.07675 2.18108-.58031 4.36156-1.09375 4.875-.51343.51344-.9375 1.55757-.9375 2.3125 0 .75491-.83392 2.18549-1.875 3.1875l-1.90625 1.84375 1.65625 2.96875c1.44922 2.64573 1.49905 3.30148.5625 5.5625-1.17829 2.84466-3.5794 3.43934-4.75 1.15625-1.13412-2.21194-1.75319-9.62182-.875-10.5.50817-.5079.50163-1.52434 0-2.84375-.85018-2.23612-.01349-7.27011 1.5-9.09375.60068-.72367.77451-3.11818.5-6.8125-.24168-3.25272-.09774-5.91466.34375-6.1875.47416-.29306.40545-1.08176-.1875-2.03125-.7965-1.27538-.66705-1.95554.6875-3.8125.9059-1.2419 1.86627-2.90811 2.15625-3.6875.341324-.917424 1.218358-1.372442 2.21875-1.40625zm185.6875 2.03125c-.39477.061188-.95342.305756-1.8125.75-1.75331.90668-2.72546 2.34239-3.75 5.5-.76142 2.34672-1.70312 4.60815-2.09375 5.03125-.39062.4231-.71875 1.28617-.71875 1.90625 0 .62007-.73426 2.05511-1.625 3.1875-.89073 1.13239-1.59375 2.89983-1.59375 3.9375 0 1.0377-.71189 2.26352-1.5625 2.71875-.97304.52075-1.74957 2.10934-2.09375 4.28125-.30086 1.89862-1.28381 5.02139-2.1875 6.9375-1.00145 2.12337-1.48613 4.35062-1.21875 5.6875.24127 1.2064-.16922 4.0431-.9375 6.3125-1.02148 3.01738-1.21142 4.74075-.65625 6.40625.4931 1.47933.46255 3.16078-.09375 4.78125-1.91149 5.56803-1.96632 7.66566-.3125 10.375 1.45974 2.39139 1.5604 3.43873 1 11.625-.33893 4.95111-.89026 9.43721-1.21875 9.96875-.32852.53153-.23714 1.95836.21875 3.15625.74363 1.954 1.43472 7.34161 2.15625 16.75.13661 1.78147.86981 5.23796 1.625 7.6875 1.12816 3.65925 2.1611 14.82113 2.0625 22.28125-.14274 10.79788-.02717 16.76293.3125 17.3125.22703.36736.01804 2.62462-.4375 5.03125-.41241 2.17875-.69828 4.21955-.875 6.21875h10.3125c-.07767-1.59663-.17413-2.91694-.34375-3.53125-.46245-1.67485-.44732-2.92768.09375-3.46875.58053-.58053.58005-1.52449 0-3.09375-.92417-2.50021-.89782-15.19594.03125-16.125.83391-.83392.72709-7.78477-.1875-11.84375-.42793-1.89921-1.17192-7.401-1.65625-12.21875-.48433-4.81775-1.47907-10.04262-2.21875-11.59375-1.02426-2.14788-1.14854-3.16146-.46875-4.25.61049-.97754.65075-1.8797.09375-2.875-.45171-.80718-.5641-2.77246-.25-4.40625.31148-1.62008.51155-3.90681.46875-5.09375-.04283-1.18694.49884-4.27631 1.1875-6.875.88105-3.32461 1.11195-6.4229.75-10.4375-.42138-4.67381-.279-5.90131.78125-6.78125.71186-.59079 1.28125-2.27203 1.28125-3.75s.4129-2.9451.90625-3.25c.54892-.33925.704-1.73167.40625-3.59375-.35483-2.21892-.13844-3.33049.78125-4.09375.83018-.68902 1.07972-1.71754.75-3.03125-.81999-3.26705-1.9471-18.2692-1.4375-19.09375.25908-.41922.5272-1.87013.625-3.25.66374-9.35691 1.2541-11.8851 3.59375-15.6875 2.74173-4.45589 2.80446-4.82374 1.65625-7.84375-.48324-1.271012-.68581-1.75823-1.34375-1.65625zm-24.5625 1.21875c-.44536 0-.8125.5507-.8125 1.21875s.36714 1.21875.8125 1.21875c.44537 0 .8125-.5507.8125-1.21875s-.36713-1.21875-.8125-1.21875zM432.3295 422.31275c-1.3171 0-1.48587.61784-1.34375 5.0625.08902 2.78356.46607 5.9125.84375 6.96875.42259 1.18186.36759 2.33756-.15625 2.96875-.94037 1.13306-.24265 7.44619.90625 8.15625.9717.60054.90141 4.97871-.09375 5.59375-.46509.28744-.60201 1.84568-.3125 3.65625.2779 1.73754.23059 3.82856-.09375 4.625-.32434.79646-.66578 2.72247-.78125 4.28125-.11547 1.55879-.67372 5.38242-1.25 8.5-.88298 4.77675-1.16179 15.05985-.6875 26.5.19375 4.67349-.92092 14.59477-1.75 15.59375-.44303.53383-.75835 2.94061-.71875 5.34375.03965 2.40312.07575 5.29284.09375 6.40625.0179 1.11343.00775 2.91782-.03125 4.03125-.03896 1.11341.33759 3.09051.84375 4.375.78014 1.97982.69937 2.5064-.53125 3.40625-1.14593.83795-1.32112 1.69271-.90625 4.125.28905 1.69466.86378 5.26529 1.3125 7.9375.443477 2.64095.897767 8.90984 1 14h13.65625c-.008198-.01301-.022955-.01815-.03125-.03125-1.38395-2.1858-1.40463-2.73505-.375-6.15625.77509-2.57545.89644-4.38268.375-5.78125-.91242-2.44724-.77726-12.91249.1875-14.40625.3968-.61437.25956-2.08767-.3125-3.46875-.54344-1.31189-.76717-3.47665-.5-4.8125.26717-1.33586.09395-3.30843-.40625-4.40625-.68977-1.51368-.69474-2.30634.0625-3.21875.54918-.66173.75043-1.61868.4375-2.125-.31291-.50633-1.01032-4.41786-1.5625-8.71875-.99659-7.76246-.99035-7.86491.96875-10.4375 1.47036-1.93082 1.88712-3.36398 1.6875-5.65625-.22272-2.55748.07003-3.20659 1.59375-3.875 1.19105-.52248 1.64249-1.23838 1.3125-2.03125-1.31059-3.14894-1.30075-4.0625.0625-4.0625 1.1919 0 1.31924-.54706.875-3.84375-.56351-4.18289-.5852-4.87839-.5625-19.15625.01071-6.70336-.35794-10.51461-1.1875-12.5-.65682-1.57201-1.01871-3.30636-.8125-3.84375.54912-1.43099-2.57869-11.30979-3.9375-12.4375-.63904-.53035-1.57075-2.303-2.09375-3.9375-1.16478-3.64017-3.76983-6.625-5.78125-6.625zm33.15625 42.21875c-.955492.02538-1.728664.51284-2.59375 1.46875-1.36922 1.51302-1.40099 2.00148-.125 9.53125 1.83519 10.82961 2.84867 13.959 5.5 17.0625 1.24979 1.46293 2.28125 2.95266 2.28125 3.3125 0 .35985 1.67963 1.52891 3.75 2.59375 5.17721 2.66273 6.27318 5.4139 5.625 14.40625-.63677 8.83391-1.30466 12.98561-2.1875 13.53125-.38687.23909-.71875 1.25194-.71875 2.25s-.41364 2.22614-.9375 2.75c-1.44958 1.44958-2.43619 8.4222-2.75 19.625-.15597 5.56711-.328 11.11899-.375 12.34375-.005704.14861.0046.29075 0 .4375h23.5c-.0313-.88372-.05994-1.78556-.03125-2.65625.45505-13.81057-1.08765-46.2267-2.375-49.8125-.39974-1.11342-1.15466-5.30418-1.6875-9.3125-.53284-4.00831-1.48381-7.99651-2.09375-8.875-.60993-.87849-1.09375-2.08111-1.09375-2.6875 0-.60639-1.36112-4.60989-3.03125-8.875-2.52748-6.45455-3.59014-8.11755-6.21875-10.03125-1.73696-1.26458-3.82847-2.3125-4.65625-2.3125-.82777 0-2.99931-1.10139-4.84375-2.4375-2.205236-1.59746-3.709011-2.34513-4.9375-2.3125zm-4.4375 38.09375c-2.323816.14974-5.611869 4.4559-7.34375 9.78125-.98072 3.01559-1.78125 6.18168-1.78125 7.03125 0 .84958-.49301 2.05551-1.09375 2.65625s-1.36394 3.77891-1.6875 7.0625c-.32355 3.2836-1.10013 6.75817-1.75 7.75-.95918 1.4639-1.01243 2.22681-.21875 3.96875.74792 1.64141.75775 2.36725.03125 3.09375-1.30027 1.30027-1.19571 5.07725.21875 7.8125.64425 1.24575.9656 3.05603.71875 4-.24685.94398.02141 3.64682.59375 6 .167091.687.335824 1.37578.46875 2.0625h12.65625c.386401-1.85259.635696-4.38619.59375-6.03125-.0473-1.85507.27426-3.6003.71875-3.875.44447-.27471.63718-.99196.40625-1.59375-.23093-.60181.12152-2.3898.78125-3.96875.65972-1.57896 1.45935-4.9549 1.78125-7.53125.3219-2.57636 1.09431-5.2193 1.71875-5.84375 1.15572-1.15572.81701-7.12951-.5625-9.84375-.33951-.66805-.5366-4.31454-.4375-8.09375.16146-6.1554-.04482-7.25666-1.96875-10.53125-1.18124-2.01049-2.69475-3.744-3.375-3.875-.145567-.02803-.313829-.04123-.46875-.03125zM404.2045 524.344c-.44289 0-2.1034.62686-3.6875 1.40625-2.26461 1.11422-2.85208 1.84576-2.71875 3.4375.09326 1.11342-.32905 2.94908-.9375 4.0625-.60844 1.11342-1.16971 4.31708-1.28125 7.125-.11156 2.80791-.59236 5.58975-1.0625 6.15625-.60393.72769-.57772 1.7945.125 3.65625.772761 2.04729.793816 2.66462-.03125 3.375 3.418275 3.39286 7.518503 6.09614 12.09375 7.875.535806-.63317 1.364312-2.62943 1.9375-4.78125 2.33434-8.76344-.90415-32.3125-4.4375-32.3125zm204.84375 1.78125c-.3184.01914-.69491.05524-1.09375.09375-3.26258.31505-3.39539.44043-3.15625 2.84375.13725 1.37954-.13277 3.26777-.625 4.1875-.49222.91971-1.07581 4.07602-1.28125 7.03125-.20544 2.95522-.7241 5.79179-1.15625 6.3125-.51379.61909-.43167 1.87057.21875 3.59375.84093 2.22789.78138 2.76204-.28125 3.5625-.69128.52073-1.85887 2.97637-2.625 5.4375-.12739.40922-.30462.9055-.46875 1.375 8.01814-3.70294 14.39363-10.29529 17.8125-18.46875-.03513-.39742-.05423-.7951-.09375-1.1875-.71881-7.13753-1.2787-9.46254-2.90625-11.9375-1.65765-2.52074-2.11495-2.9777-4.34375-2.84375z"/>
        <path fill="url(#d)" fill-rule="evenodd"
              d="M557.05665 338.89518H446.22721c-29.33688 0-52.95465 23.80974-52.95465 53.38507v108.12736c.9496 23.08605 4.60229 8.49154 11.55502-17.07471 8.08056-29.71315 34.39648-55.68287 66.44461-75.1457 24.46133-14.85525 51.84109-24.34125 101.67955-25.24367 28.26482-.51176 25.7695-36.68291-15.89509-44.04835z"
              opacity=".55364805"/>
    </g>
</svg>

